<?xml version="1.0" encoding="utf-8"?>
<!-- Generator: Adobe Illustrator 19.0.0, SVG Export Plug-In . SVG Version: 6.00 Build 0)  -->
<svg version="1.1" id="Layer_1" xmlns:svgjs="http://svgjs.com/svgjs"
	 xmlns="http://www.w3.org/2000/svg" xmlns:xlink="http://www.w3.org/1999/xlink" x="0px" y="0px" viewBox="50.3 297.8 331.9 247.3"
	 style="enable-background:new 50.3 297.8 331.9 247.3;" xml:space="preserve">
<style type="text/css">
	.st0{fill:#FFFFFF;}
</style>
<g>
	<path class="st0" d="M293.5,297.8c-28.6,0-60.5,4.4-77.2,15.6c-16.7-11.2-48.6-15.6-77.2-15.6c-40.9,0-88.7,8.9-88.7,34.2v201.6
		c0,3.4,1.5,6.6,4.1,8.8c2.6,2.2,6,3.1,9.4,2.5c22.7-3.9,48.7-6,75.2-6s52.5,2.1,75.2,6c0.3,0.1,0.6,0.1,0.9,0.1c0.2,0,0.5,0,0.7,0
		c0.1,0,0.2,0,0.3,0c0.6,0,1.2-0.1,1.8-0.2c0,0,0.1,0,0.1,0c22.7-3.9,48.7-6,75.2-6c26.5,0,52.5,2.1,75.2,6c0.7,0.1,1.3,0.2,2,0.2
		c2.7,0,5.3-0.9,7.4-2.7c2.6-2.2,4.1-5.4,4.1-8.8V332C382.2,306.7,334.4,297.8,293.5,297.8z M73.4,520.1V333.4
		c4.7-4.6,27.7-12.6,65.7-12.6c37.9,0,61,8,65.7,12.6v186.7c-20.5-2.8-42.9-4.3-65.7-4.3S93.9,517.3,73.4,520.1z M359.1,520.1
		c-41-5.6-90.3-5.6-131.3,0V333.4c4.7-4.6,27.7-12.6,65.7-12.6s61,8,65.7,12.6V520.1z"/>
</g>
<path class="st0" d="M258.3,387.3h70.2c5.1,0,8.6-3.4,8.6-8.6c0-5.1-3.4-8.6-8.6-8.6h-70.2c-5.1,0-8.6,3.4-8.6,8.6
	C249.8,383.9,254.1,387.3,258.3,387.3L258.3,387.3z"/>
<path class="st0" d="M258.3,429.4h70.2c5.1,0,8.6-3.4,8.6-8.6c0-5.1-3.4-8.6-8.6-8.6h-70.2c-5.1,0-8.6,3.4-8.6,8.6
	C249.8,426,254.1,429.4,258.3,429.4L258.3,429.4z"/>
<path class="st0" d="M258.3,472.7h70.2c5.1,0,8.6-3.4,8.6-8.6c0-5.1-3.4-8.6-8.6-8.6h-70.2c-5.1,0-8.6,3.4-8.6,8.6
	C249.8,469.3,254.1,472.7,258.3,472.7L258.3,472.7z"/>
<path class="st0" d="M105,387.3h70.2c5.1,0,8.6-3.4,8.6-8.6c0-5.1-3.4-8.6-8.6-8.6H105c-5.1,0-8.6,3.4-8.6,8.6
	C96.4,383.9,100.7,387.3,105,387.3L105,387.3z"/>
<path class="st0" d="M105,429.4h70.2c5.1,0,8.6-3.4,8.6-8.6c0-5.1-3.4-8.6-8.6-8.6H105c-5.1,0-8.6,3.4-8.6,8.6
	C96.4,426,100.7,429.4,105,429.4L105,429.4z"/>
<path class="st0" d="M105,472.7h70.2c5.1,0,8.6-3.4,8.6-8.6c0-5.1-3.4-8.6-8.6-8.6H105c-5.1,0-8.6,3.4-8.6,8.6
	C96.4,469.3,100.7,472.7,105,472.7L105,472.7z"/>
</svg>
