<?xml version="1.0" encoding="utf-8"?>
<!-- Generator: Adobe Illustrator 19.0.0, SVG Export Plug-In . SVG Version: 6.00 Build 0)  -->
<svg version="1.1" id="Layer_1" xmlns="http://www.w3.org/2000/svg" xmlns:xlink="http://www.w3.org/1999/xlink" x="0px" y="0px"
	 viewBox="-269 360.7 72.7 73.3" style="enable-background:new -269 360.7 72.7 73.3;" xml:space="preserve">
<style type="text/css">
	.st0{fill:#4F2B78;}
</style>
<path class="st0" d="M-197.9,377.3v34.6c0,1.7-0.9,3.3-2.4,4.1l-30,17.3c-1.5,0.9-3.3,0.9-4.8,0l-30-17.3c-1.4-0.9-2.4-2.4-2.4-4.1
	v-34.6c0-1.7,0.9-3.3,2.4-4.1c6.8-3.9,13.5-7.8,20.3-11.8c3.2-1.9,7.1,0.4,7.1,4.1v0.9c0,1.7-0.9,3.3-2.4,4.1l-15.1,8.7
	c-1.5,0.9-2.4,2.4-2.4,4.1v0.4c0,3.7,3.9,5.9,7.1,4.1l5.7-3.3c3.2-1.9,7.1,0.4,7.1,4.1v0.4c0,1.7-0.9,3.3-2.4,4.1l-15.1,8.7
	c-0.8,0.4-1.3,1-1.7,1.7c-0.9,1.5-1,3.5,0.3,5.2c0.3,0.5,0.9,1,1.4,1.3l0.5,0.3c1.4,0.8,3,0.8,4.4,0c6.8-3.9,13.5-7.8,20.4-11.8
	c1.5-0.9,2.4-2.4,2.4-4.1v-29.2c0-3.6,3.9-5.9,7.1-4.1l0.4,0.2c1.5,0.9,2.4,2.4,2.4,4.1v34.6c0,1.7-0.9,3.3-2.4,4.1l-15.4,8.8
	c-3.2,1.9-3.2,6.4,0,8.2l0.3,0.2c1.5,0.9,3.3,0.9,4.8,0l20.1-11.7c1.4-0.9,2.4-2.4,2.4-4.1v-13.5c-2.4,1.3-5.3,0.4-6.6-1.9
	c-0.4-0.8-0.7-1.6-0.7-2.4c0-1.7,0.9-3.4,2.5-4.2l4.8-2.7v-4.1c0-3.7,3.9-5.9,7.1-4.1l0.4,0.2C-198.8,374-197.9,375.5-197.9,377.3"
	/>
</svg>
