<?xml version="1.0" encoding="utf-8"?>
<!-- Generator: Adobe Illustrator 19.0.0, SVG Export Plug-In . SVG Version: 6.00 Build 0)  -->
<svg version="1.1" id="Layer_1" xmlns="http://www.w3.org/2000/svg" xmlns:xlink="http://www.w3.org/1999/xlink" x="0px" y="0px"
	 viewBox="-173 360.7 211.5 73.3" style="enable-background:new -173 360.7 211.5 73.3;" xml:space="preserve">
<style type="text/css">
	.st0{fill:#4F2B78;}
	.st1{fill:#822982;}
</style>
<path class="st0" d="M-82.1,381.9v31.8c0,1.6-0.8,3-2.2,3.8l-27.5,15.9c-1.4,0.8-3,0.8-4.4,0l-27.5-15.9c-1.3-0.8-2.2-2.2-2.2-3.8
	v-31.8c0-1.6,0.8-3,2.2-3.8c6.2-3.6,12.4-7.2,18.6-10.8c2.9-1.7,6.5,0.4,6.5,3.8v0.8c0,1.6-0.8,3-2.2,3.8l-13.9,8
	c-1.4,0.8-2.2,2.2-2.2,3.8v0.4c0,3.4,3.6,5.4,6.5,3.8l5.2-3c2.9-1.7,6.5,0.4,6.5,3.8v0.4c0,1.6-0.8,3-2.2,3.8l-13.9,8
	c-0.7,0.4-1.2,0.9-1.6,1.6c-0.8,1.4-0.9,3.2,0.3,4.8c0.3,0.5,0.8,0.9,1.3,1.2l0.5,0.3c1.3,0.7,2.8,0.7,4,0
	c6.2-3.6,12.4-7.2,18.7-10.8c1.4-0.8,2.2-2.2,2.2-3.8v-26.8c0-3.3,3.6-5.4,6.5-3.8l0.4,0.2c1.4,0.8,2.2,2.2,2.2,3.8v31.8
	c0,1.6-0.8,3-2.2,3.8l-14.1,8.1c-2.9,1.7-2.9,5.9,0,7.5l0.3,0.2c1.4,0.8,3,0.8,4.4,0l18.5-10.7c1.3-0.8,2.2-2.2,2.2-3.8v-12.4
	c-2.2,1.2-4.9,0.4-6.1-1.7c-0.4-0.7-0.6-1.5-0.6-2.2c0-1.6,0.8-3.1,2.3-3.9l4.4-2.5v-3.8c0-3.4,3.6-5.4,6.5-3.8l0.4,0.2
	C-82.9,378.9-82.1,380.3-82.1,381.9"/>
<path class="st1" d="M-52.8,388.2c-1,1-1.5,2.4-1.5,4v2.6h8.1c1.2,0,2.1-0.2,2.6-0.6c0.5-0.4,0.7-1,0.7-2c0-1.8-0.5-3.2-1.5-4.1
	c-1-0.9-2.4-1.4-4.3-1.4C-50.4,386.6-51.8,387.1-52.8,388.2 M-43.7,407.1c1.1-0.4,2.3-1.2,3.5-2.4l5.5,5c-2.7,3.4-7.2,5-13.3,5
	c-5.4,0-9.4-1-11.8-3.1c-2.4-2.1-3.6-5.4-3.6-10v-10.2c0-3.6,1.3-6.5,3.9-8.6c2.6-2.1,6.2-3.2,10.8-3.2c4.7,0,8.4,1.1,11,3.4
	c2.6,2.2,4,5.5,4,9.8c0,2.1-0.2,3.7-0.5,4.8c-0.4,1.1-1.1,2-2.1,2.5s-2.6,0.8-4.5,0.8h-13.3v0.6c0,4.1,2.1,6.1,6.2,6.1
	C-46.2,407.8-44.8,407.6-43.7,407.1"/>
<path class="st1" d="M-25.3,410.5c-1-1.6-1.4-3.8-1.4-6.6v-32.1c0-1.3-0.2-2.3-0.7-3.1c-0.5-0.8-1.4-1.7-2.7-2.6l6.2-5.4
	c2.4,1.2,4.1,2.6,5,4.2c0.9,1.6,1.4,3.8,1.4,6.6v32.1c0,1.3,0.2,2.3,0.7,3.1c0.5,0.8,1.4,1.7,2.7,2.6l-6.2,5.4
	C-22.7,413.5-24.4,412.1-25.3,410.5"/>
<path class="st1" d="M1.7,387.6v13.8c0,2,0.3,3.4,0.9,4.2s1.7,1.2,3.1,1.2h5.6v7.1H5.7c-3.3,0-5.9-0.4-7.8-1.2
	c-1.9-0.8-3.3-2.1-4.2-3.9c-0.9-1.8-1.3-4.3-1.3-7.4v-26.1c0-1.3-0.2-2.3-0.7-3.1s-1.4-1.7-2.7-2.6l6.2-5.4c2.4,1.2,4.1,2.6,5,4.2
	c0.9,1.6,1.4,3.8,1.4,6.6v5.5h9.7v7.1L1.7,387.6L1.7,387.6z"/>
<path class="st0" d="M-63,428.1c-0.3-0.3-0.4-0.7-0.4-1.2v-2c0-0.5,0.1-0.9,0.4-1.2c0.3-0.3,0.7-0.4,1.3-0.4h1.8v0.6h-1.8
	c-0.4,0-0.6,0.1-0.8,0.2c-0.2,0.2-0.3,0.4-0.3,0.8v0.7h2.5v0.6h-2.5v0.7c0,0.3,0.1,0.6,0.3,0.8c0.2,0.2,0.4,0.3,0.8,0.3h1.8v0.6
	h-1.8C-62.3,428.5-62.7,428.4-63,428.1"/>
<path class="st0" d="M-56.3,428.1c-0.3-0.3-0.4-0.7-0.4-1.2v-3.6h0.7v3.6c0,0.3,0.1,0.6,0.2,0.8c0.2,0.2,0.4,0.3,0.8,0.3h1.7v0.6
	H-55C-55.6,428.5-56,428.4-56.3,428.1"/>
<path class="st0" d="M-51.7,425.7c-0.1,0.1-0.2,0.3-0.2,0.6v0.4h1.3c0.2,0,0.3,0,0.3-0.1c0.1,0,0.1-0.1,0.1-0.3
	c0-0.2-0.1-0.4-0.2-0.6c-0.1-0.1-0.4-0.2-0.6-0.2C-51.3,425.5-51.5,425.5-51.7,425.7 M-50.5,428c0.1-0.1,0.3-0.2,0.4-0.3l0.4,0.4
	c-0.1,0.2-0.3,0.3-0.6,0.4c-0.2,0.1-0.5,0.1-0.8,0.1c-0.5,0-0.9-0.1-1.2-0.3c-0.3-0.2-0.4-0.6-0.4-1v-1.1c0-0.4,0.1-0.7,0.4-0.9
	s0.6-0.3,1.1-0.3s0.8,0.1,1.1,0.4c0.3,0.2,0.4,0.6,0.4,1c0,0.3-0.1,0.5-0.2,0.6c-0.1,0.1-0.3,0.2-0.6,0.2h-1.6v0.2
	c0,0.3,0.1,0.5,0.2,0.6c0.1,0.1,0.4,0.2,0.7,0.2C-50.8,428.1-50.6,428.1-50.5,428"/>
<path class="st0" d="M-46.6,427.9c0.2-0.2,0.3-0.4,0.3-0.6v-0.5c-0.1,0.1-0.3,0.1-0.5,0.1h-0.4c-0.5,0.1-0.8,0.3-0.8,0.6
	c0,0.2,0.1,0.3,0.2,0.4c0.1,0.1,0.3,0.1,0.5,0.1C-47.1,428.1-46.8,428-46.6,427.9 M-45.6,428c0,0.1,0.1,0.1,0.2,0.2l-0.4,0.4
	c-0.3-0.1-0.4-0.3-0.5-0.6c-0.1,0.2-0.3,0.3-0.5,0.4c-0.2,0.1-0.5,0.1-0.7,0.1c-0.4,0-0.7-0.1-0.9-0.3c-0.2-0.2-0.3-0.4-0.3-0.8
	c0-0.3,0.1-0.6,0.4-0.8c0.2-0.2,0.6-0.3,1-0.3l0.5-0.1c0.2,0,0.4-0.1,0.4-0.1c0.1-0.1,0.1-0.1,0.1-0.3c0-0.2-0.1-0.3-0.2-0.5
	c-0.1-0.1-0.3-0.2-0.6-0.2c-0.2,0-0.4,0-0.5,0.1c-0.1,0.1-0.3,0.2-0.4,0.3l-0.4-0.3c0.1-0.2,0.3-0.3,0.5-0.4
	c0.2-0.1,0.5-0.1,0.8-0.1c0.5,0,0.9,0.1,1.1,0.3c0.3,0.2,0.4,0.5,0.4,0.9v1.6C-45.7,427.9-45.7,427.9-45.6,428"/>
<path class="st0" d="M-42.1,425.1l-0.2,0.6c-0.2-0.1-0.3-0.1-0.5-0.1c-0.2,0-0.4,0.1-0.6,0.3c-0.2,0.2-0.3,0.4-0.4,0.8v2h-0.7V426
	c0-0.1,0-0.2-0.1-0.3c0-0.1-0.1-0.1-0.2-0.2l0.4-0.4c0.2,0.1,0.3,0.2,0.4,0.3s0.1,0.3,0.1,0.5c0.1-0.2,0.3-0.4,0.4-0.6
	c0.2-0.1,0.4-0.2,0.6-0.2C-42.4,424.9-42.3,425-42.1,425.1"/>
<path class="st0" d="M-38.6,425.3c0.2,0.2,0.3,0.5,0.3,0.9v2.4H-39v-2.3c0-0.2-0.1-0.4-0.2-0.6c-0.1-0.1-0.3-0.2-0.5-0.2
	s-0.4,0.1-0.6,0.2c-0.2,0.2-0.3,0.4-0.4,0.7v2.2h-0.7v-2.7c0-0.1,0-0.2-0.1-0.3c0-0.1-0.1-0.1-0.2-0.2l0.4-0.4
	c0.2,0.1,0.3,0.2,0.4,0.3s0.1,0.2,0.1,0.4c0.1-0.2,0.3-0.4,0.5-0.5c0.2-0.1,0.4-0.2,0.7-0.2C-39.1,424.9-38.8,425-38.6,425.3"/>
<path class="st0" d="M-36.9,428.3c-0.1-0.1-0.1-0.3-0.1-0.5v-2.7h0.7v2.7c0,0.1,0,0.2,0.1,0.3c0,0.1,0.1,0.1,0.2,0.2l-0.4,0.4
	C-36.7,428.5-36.8,428.4-36.9,428.3 M-36.9,424.2c-0.1-0.1-0.1-0.2-0.1-0.3s0-0.2,0.1-0.3s0.2-0.1,0.3-0.1c0.1,0,0.2,0,0.3,0.1
	c0.1,0.1,0.1,0.2,0.1,0.3c0,0.1,0,0.2-0.1,0.3c-0.1,0.1-0.2,0.1-0.3,0.1C-36.7,424.3-36.8,424.3-36.9,424.2"/>
<path class="st0" d="M-32.2,425.3c0.2,0.2,0.3,0.5,0.3,0.9v2.4h-0.7v-2.3c0-0.2-0.1-0.4-0.2-0.6c-0.1-0.1-0.3-0.2-0.5-0.2
	c-0.2,0-0.4,0.1-0.6,0.2c-0.2,0.2-0.3,0.4-0.4,0.7v2.2H-35v-2.7c0-0.1,0-0.2-0.1-0.3c0-0.1-0.1-0.1-0.2-0.2l0.4-0.4
	c0.2,0.1,0.3,0.2,0.4,0.3c0.1,0.1,0.1,0.2,0.1,0.4c0.1-0.2,0.3-0.4,0.5-0.5c0.2-0.1,0.4-0.2,0.7-0.2
	C-32.7,424.9-32.4,425-32.2,425.3"/>
<path class="st0" d="M-28.6,427.8c0.2-0.1,0.3-0.3,0.4-0.6v-1.1c-0.1-0.3-0.2-0.4-0.4-0.6c-0.2-0.1-0.4-0.2-0.6-0.2
	c-0.3,0-0.6,0.1-0.8,0.3c-0.2,0.2-0.3,0.5-0.3,0.9v0.2c0,0.4,0.1,0.6,0.3,0.9c0.2,0.2,0.4,0.3,0.8,0.3
	C-28.9,428-28.7,428-28.6,427.8 M-27.3,425.3c-0.1,0.1-0.2,0.2-0.2,0.2c0,0.1-0.1,0.2-0.1,0.3v2.9c0,0.4-0.1,0.8-0.3,1
	s-0.6,0.3-1.1,0.3h-0.9v-0.5h0.9c0.3,0,0.5-0.1,0.6-0.2c0.1-0.1,0.2-0.3,0.2-0.6V428c-0.2,0.4-0.6,0.5-1.1,0.5s-0.8-0.2-1.1-0.5
	s-0.4-0.7-0.4-1.3v-0.2c0-0.3,0.1-0.6,0.2-0.9c0.1-0.3,0.3-0.5,0.5-0.6c0.2-0.1,0.5-0.2,0.8-0.2c0.3,0,0.5,0,0.7,0.1
	c0.2,0.1,0.4,0.2,0.5,0.4c0-0.1,0.1-0.2,0.1-0.3c0.1-0.1,0.2-0.2,0.3-0.3L-27.3,425.3z"/>
<polygon class="st0" points="-22.8,423.9 -24.4,423.9 -24.4,423.3 -20.4,423.3 -20.4,423.9 -22.1,423.9 -22.1,428.5 -22.8,428.5 "/>
<path class="st0" d="M-20,425.7c-0.1,0.1-0.2,0.3-0.2,0.6v0.4h1.3c0.2,0,0.3,0,0.3-0.1c0.1,0,0.1-0.1,0.1-0.3c0-0.2-0.1-0.4-0.2-0.6
	c-0.1-0.1-0.4-0.2-0.6-0.2C-19.7,425.5-19.9,425.5-20,425.7 M-18.8,428c0.1-0.1,0.3-0.2,0.4-0.3l0.4,0.4c-0.1,0.2-0.3,0.3-0.6,0.4
	c-0.2,0.1-0.5,0.1-0.8,0.1c-0.5,0-0.9-0.1-1.2-0.3c-0.3-0.2-0.4-0.6-0.4-1v-1.1c0-0.4,0.1-0.7,0.4-0.9c0.3-0.2,0.6-0.3,1.1-0.3
	s0.8,0.1,1.1,0.4c0.3,0.2,0.4,0.6,0.4,1c0,0.3-0.1,0.5-0.2,0.6c-0.1,0.1-0.3,0.2-0.6,0.2h-1.4v0.2c0,0.3,0.1,0.5,0.2,0.6
	c0.1,0.1,0.4,0.2,0.7,0.2C-19.1,428.1-19,428.1-18.8,428"/>
<path class="st0" d="M-16.8,428.3c-0.3-0.2-0.4-0.6-0.4-1v-1c0-0.4,0.1-0.8,0.4-1c0.3-0.2,0.7-0.3,1.2-0.3c0.6,0,1,0.2,1.3,0.6
	l-0.4,0.4c-0.1-0.2-0.3-0.3-0.4-0.3c-0.1-0.1-0.3-0.1-0.5-0.1c-0.3,0-0.5,0.1-0.7,0.2c-0.2,0.1-0.2,0.3-0.2,0.6v1
	c0,0.3,0.1,0.5,0.2,0.6c0.2,0.1,0.4,0.2,0.7,0.2c0.2,0,0.4,0,0.5-0.1c0.1-0.1,0.3-0.2,0.4-0.3l0.4,0.4c-0.1,0.2-0.3,0.3-0.5,0.4
	c-0.2,0.1-0.5,0.1-0.8,0.1C-16.2,428.6-16.5,428.5-16.8,428.3"/>
<path class="st0" d="M-10.8,425.3c0.2,0.2,0.3,0.5,0.3,0.9v2.4h-0.7v-2.3c0-0.2-0.1-0.4-0.2-0.6c-0.1-0.1-0.3-0.2-0.5-0.2
	s-0.4,0.1-0.6,0.2c-0.2,0.2-0.3,0.4-0.4,0.7v2.2h-0.7v-4.7c0-0.1,0-0.2-0.1-0.3c0-0.1-0.1-0.1-0.2-0.2l0.4-0.4
	c0.2,0.1,0.3,0.2,0.4,0.3c0.1,0.1,0.1,0.3,0.1,0.5v1.7c0.1-0.2,0.3-0.4,0.5-0.5c0.2-0.1,0.4-0.2,0.7-0.2
	C-11.3,424.9-11,425-10.8,425.3"/>
<path class="st0" d="M-6.9,425.3c0.2,0.2,0.3,0.5,0.3,0.9v2.4h-0.7v-2.3c0-0.2-0.1-0.4-0.2-0.6c-0.1-0.1-0.3-0.2-0.5-0.2
	s-0.4,0.1-0.6,0.2c-0.2,0.2-0.3,0.4-0.4,0.7v2.2h-0.7v-2.7c0-0.1,0-0.2-0.1-0.3c0-0.1-0.1-0.1-0.2-0.2l0.4-0.4
	c0.2,0.1,0.3,0.2,0.4,0.3s0.1,0.2,0.1,0.4c0.1-0.2,0.3-0.4,0.5-0.5c0.2-0.1,0.4-0.2,0.7-0.2C-7.4,424.9-7.1,425-6.9,425.3"/>
<path class="st0" d="M-3.5,427.9c0.2-0.1,0.2-0.4,0.2-0.6v-1c0-0.3-0.1-0.5-0.2-0.6c-0.2-0.1-0.4-0.2-0.6-0.2
	c-0.3,0-0.5,0.1-0.6,0.2c-0.2,0.1-0.2,0.4-0.2,0.6v1c0,0.3,0.1,0.5,0.2,0.6c0.2,0.1,0.4,0.2,0.6,0.2C-3.8,428.1-3.6,428-3.5,427.9
	 M-5.2,428.3c-0.3-0.2-0.4-0.6-0.4-1v-1c0-0.4,0.1-0.8,0.4-1s0.6-0.4,1.1-0.4s0.9,0.1,1.1,0.4c0.3,0.2,0.4,0.6,0.4,1v1
	c0,0.4-0.1,0.8-0.4,1s-0.6,0.4-1.1,0.4C-4.6,428.6-5,428.5-5.2,428.3"/>
<path class="st0" d="M-1.5,428.3c-0.1-0.1-0.1-0.3-0.1-0.5v-3.9c0-0.1,0-0.2-0.1-0.3c0-0.1-0.1-0.1-0.2-0.2l0.4-0.4
	c0.2,0.1,0.3,0.2,0.4,0.3s0.1,0.3,0.1,0.5v3.8c0,0.1,0,0.2,0.1,0.3c0,0.1,0.1,0.1,0.2,0.2l-0.4,0.4C-1.3,428.5-1.4,428.4-1.5,428.3"
	/>
<path class="st0" d="M2.2,427.9c0.2-0.1,0.2-0.4,0.2-0.6v-1c0-0.3-0.1-0.5-0.2-0.6c-0.2-0.1-0.4-0.2-0.6-0.2c-0.3,0-0.5,0.1-0.6,0.2
	c-0.2,0.1-0.2,0.4-0.2,0.6v1c0,0.3,0.1,0.5,0.2,0.6c0.2,0.1,0.4,0.2,0.6,0.2C1.9,428.1,2.1,428,2.2,427.9 M0.5,428.3
	c-0.3-0.2-0.4-0.6-0.4-1v-1c0-0.4,0.1-0.8,0.4-1s0.6-0.4,1.1-0.4s0.9,0.1,1.1,0.4c0.3,0.2,0.4,0.6,0.4,1v1c0,0.4-0.1,0.8-0.4,1
	s-0.6,0.4-1.1,0.4C1.1,428.6,0.7,428.5,0.5,428.3"/>
<path class="st0" d="M6.2,427.8c0.2-0.1,0.3-0.3,0.4-0.6v-1.1c-0.1-0.3-0.2-0.4-0.4-0.6c-0.2-0.1-0.4-0.2-0.6-0.2
	c-0.3,0-0.6,0.1-0.8,0.3c-0.2,0.2-0.3,0.5-0.3,0.9v0.2c0,0.4,0.1,0.6,0.3,0.9c0.2,0.2,0.4,0.3,0.8,0.3C5.8,428,6.1,428,6.2,427.8
	 M7.5,425.3c-0.1,0.1-0.2,0.2-0.2,0.2c0,0.1-0.1,0.2-0.1,0.3v2.9c0,0.4-0.1,0.8-0.3,1S6.3,430,5.8,430H4.9v-0.5h0.9
	c0.3,0,0.5-0.1,0.6-0.2c0.1-0.1,0.2-0.3,0.2-0.6V428c-0.2,0.4-0.6,0.5-1.1,0.5c-0.5,0-0.8-0.2-1.1-0.5c-0.3-0.3-0.4-0.7-0.4-1.3
	v-0.2c0-0.3,0.1-0.6,0.2-0.9s0.3-0.5,0.5-0.6c0.2-0.1,0.5-0.2,0.8-0.2c0.3,0,0.5,0,0.7,0.1c0.2,0.1,0.4,0.2,0.5,0.4
	c0-0.1,0.1-0.2,0.1-0.3c0.1-0.1,0.2-0.2,0.3-0.3L7.5,425.3z"/>
<path class="st0" d="M11.4,425v3.9c0,0.4-0.1,0.8-0.4,1c-0.2,0.2-0.6,0.3-1.1,0.3H9v-0.5h0.9c0.3,0,0.5-0.1,0.6-0.2
	c0.1-0.1,0.2-0.3,0.2-0.6v-1c-0.2,0.4-0.6,0.6-1.2,0.6c-0.4,0-0.7-0.1-0.9-0.3s-0.3-0.5-0.3-0.9v-1.6c0-0.1,0-0.2-0.1-0.3
	c0-0.1-0.1-0.1-0.2-0.2l0.4-0.4c0.2,0.1,0.3,0.2,0.4,0.3c0.1,0.1,0.1,0.3,0.1,0.5v1.5c0,0.2,0.1,0.4,0.2,0.6
	c0.1,0.1,0.3,0.2,0.5,0.2c0.3,0,0.5-0.1,0.7-0.3s0.3-0.4,0.3-0.7v-2.1h0.8V425z"/>
</svg>
