<?xml version="1.0" encoding="utf-8"?>
<!-- Generator: Adobe Illustrator 19.0.0, SVG Export Plug-In . SVG Version: 6.00 Build 0)  -->
<svg version="1.1" id="Layer_1" xmlns="http://www.w3.org/2000/svg" xmlns:xlink="http://www.w3.org/1999/xlink" x="0px" y="0px"
	 viewBox="-287 409.1 20.2 23.8" style="enable-background:new -287 409.1 20.2 23.8;" xml:space="preserve">
<style type="text/css">
	.st0{fill:#AADAEE;}
	.st1{fill:#6EC2EA;}
</style>
<g>
	<path class="st0" d="M-273.4,412.6c0-1.9-1.6-3.5-3.5-3.5s-3.5,1.6-3.5,3.5s1.6,3.5,3.5,3.5S-273.4,414.5-273.4,412.6z"/>
	<path class="st0" d="M-286,423.1h18.1v-2.8h-1.4v-3.9l-2.4-1.6l-0.8,1.2l1.8,1.2v3.1h-1.5c-0.3-2.4-2.4-4.2-4.8-4.2
		c-2.5,0-4.5,1.8-4.8,4.2h-1.5v-3.1l1.8-1.2l-0.8-1.2l-2.4,1.6v3.9h-1.4V423.1z"/>
	<path class="st1" d="M-270.7,424.5h-12.3l1.4,8.4l9.5,0L-270.7,424.5z"/>
</g>
</svg>
