<?xml version="1.0" encoding="utf-8"?>
<!-- Generator: Adobe Illustrator 19.0.0, SVG Export Plug-In . SVG Version: 6.00 Build 0)  -->
<svg version="1.1" id="Layer_1" xmlns="http://www.w3.org/2000/svg" xmlns:xlink="http://www.w3.org/1999/xlink" x="0px" y="0px"
	 viewBox="-285 410.1 23.4 22.8" style="enable-background:new -285 410.1 23.4 22.8;" xml:space="preserve">
<style type="text/css">
	.st0{fill:#6EC2EA;}
	.st1{fill:#AADAEE;}
</style>
<g>
	<g>
		<path class="st0" d="M-265,421.8h-1.8c0.2,0.5,0.3,1.1,0.3,1.6v6.8c0,0.2,0,0.5-0.1,0.7h3c1.1,0,2-0.9,2-2v-3.7
			C-261.6,423.3-263.1,421.8-265,421.8z"/>
	</g>
</g>
<g>
	<g>
		<path class="st0" d="M-280.1,423.4c0-0.6,0.1-1.1,0.3-1.6h-1.8c-1.9,0-3.4,1.5-3.4,3.4v3.7c0,1.1,0.9,2,2,2h3
			c-0.1-0.2-0.1-0.4-0.1-0.7V423.4z"/>
	</g>
</g>
<g>
	<g>
		<path class="st0" d="M-271.2,420h-4.1c-1.9,0-3.4,1.5-3.4,3.4v6.8c0,0.4,0.3,0.7,0.7,0.7h9.5c0.4,0,0.7-0.3,0.7-0.7v-6.8
			C-267.9,421.6-269.4,420-271.2,420z"/>
	</g>
</g>
<g>
	<g>
		<path class="st1" d="M-273.3,411.1c-2.2,0-4.1,1.8-4.1,4.1c0,1.5,0.8,2.8,2.1,3.5c0.6,0.3,1.3,0.5,2,0.5c0.7,0,1.4-0.2,2-0.5
			c1.2-0.7,2.1-2,2.1-3.5C-269.2,412.9-271.1,411.1-273.3,411.1z"/>
	</g>
</g>
<g>
	<g>
		<path class="st1" d="M-280.4,414.9c-1.7,0-3,1.4-3,3c0,1.7,1.4,3,3,3c0.4,0,0.8-0.1,1.2-0.2c0.6-0.3,1.2-0.8,1.5-1.4
			c0.2-0.4,0.4-0.9,0.4-1.4C-277.4,416.2-278.8,414.9-280.4,414.9z"/>
	</g>
</g>
<g>
	<g>
		<path class="st1" d="M-266.2,414.9c-1.7,0-3,1.4-3,3c0,0.5,0.1,1,0.4,1.4c0.3,0.6,0.8,1.1,1.5,1.4c0.4,0.2,0.8,0.2,1.2,0.2
			c1.7,0,3-1.4,3-3C-263.1,416.2-264.5,414.9-266.2,414.9z"/>
	</g>
</g>
</svg>
