<?xml version="1.0" encoding="utf-8"?>
<!-- Generator: Adobe Illustrator 19.0.0, SVG Export Plug-In . SVG Version: 6.00 Build 0)  -->
<svg version="1.1" id="Layer_1" xmlns="http://www.w3.org/2000/svg" xmlns:xlink="http://www.w3.org/1999/xlink" x="0px" y="0px"
	 viewBox="-287 410.7 19.2 21.2" style="enable-background:new -287 410.7 19.2 21.2;" xml:space="preserve">
<style type="text/css">
	.st0{fill:#6EC2EA;}
	.st1{fill:#AADAEE;}
</style>
<g>
	<path class="st0" d="M-269,412.4h-16.7c-0.7,0-1.2,0.5-1.2,1.2V429c0,0.7,0.5,1.2,1.2,1.2h16.7c0.7,0,1.2-0.5,1.2-1.2v-15.5
		C-267.8,412.9-268.4,412.4-269,412.4L-269,412.4z M-269.8,423.7c0,0.4-0.3,0.8-0.8,0.8h-13.7c-0.4,0-0.8-0.3-0.8-0.8v-8.6
		c0-0.4,0.3-0.8,0.8-0.8h13.7c0.4,0,0.8,0.3,0.8,0.8V423.7z"/>
	<path class="st1" d="M-279.4,417.7v3.3c0,0.3,0.2,0.5,0.5,0.5c0.1,0,0.2,0,0.3-0.1l2.9-1.6c0.3-0.1,0.3-0.5,0.2-0.7
		c0-0.1-0.1-0.1-0.2-0.2l-2.9-1.6c-0.3-0.1-0.6-0.1-0.7,0.2C-279.3,417.6-279.4,417.6-279.4,417.7L-279.4,417.7z"/>
</g>
</svg>
