<?xml version="1.0" encoding="utf-8"?>
<!-- Generator: Adobe Illustrator 19.0.0, SVG Export Plug-In . SVG Version: 6.00 Build 0)  -->
<svg version="1.1" xmlns="http://www.w3.org/2000/svg" xmlns:xlink="http://www.w3.org/1999/xlink" x="0px" y="0px"
	 viewBox="-287 411 19.2 20.9" style="enable-background:new -287 411 19.2 20.9;" xml:space="preserve">
<style type="text/css">
	.st0{fill:#6EC2EA;}
</style>
<g id="Layer_2">
</g>
<g id="Layer_1">
	<g>
		<g>
			<path class="st0" d="M-269.2,413.2h-2.7v-0.9h-10.9v0.9h-2.7c-0.5,0-0.9,0.4-0.9,0.9v2.2c0,2.1,1.6,3.8,3.6,4.1v0.1
				c0,2.6,1.8,4.8,4.3,5.4l-0.6,1.9h-2.1c-0.4,0-0.7,0.3-0.8,0.6l-0.7,2.1h10.9l-0.7-2.1c-0.1-0.4-0.5-0.6-0.8-0.6h-2.1l-0.6-1.9
				c2.5-0.5,4.3-2.7,4.3-5.4v-0.1c2.1-0.3,3.6-2,3.6-4.1v-2.2C-268.3,413.6-268.6,413.2-269.2,413.2z M-282.9,418.6
				c-1-0.3-1.8-1.2-1.8-2.3v-1.3h1.8V418.6z M-275.6,421.4l-1.8-1l-1.8,1l0.5-1.8l-1.4-1.8h1.9l0.8-1.8l0.8,1.8h1.9l-1.4,1.8
				L-275.6,421.4z M-270.1,416.3c0,1.1-0.8,2.1-1.8,2.3v-3.6h1.8V416.3z"/>
		</g>
	</g>
</g>
</svg>
